<svg xmlns="http://www.w3.org/2000/svg" viewBox="0 0 100 100" fill-rule="evenodd"><g class="t-group-origins"><path d="M77.484 13.091H22.517c-5.079 0-9.212 4.133-9.212 9.213v37.832c0 5.08 4.133 9.212 9.212 9.212h19.25v14.561H26.91a1.5 1.5 0 1 0 0 3h46.182a1.5 1.5 0 1 0 0-3H58.241V69.348h19.243c5.08 0 9.213-4.132 9.213-9.212V22.304c0-5.081-4.133-9.213-9.213-9.213zm-54.967 3h54.967a6.22 6.22 0 0 1 6.213 6.213v28.404H16.305V22.304a6.22 6.22 0 0 1 6.212-6.213zm32.724 67.817H44.767V69.347h10.474v14.561zm22.243-17.561H22.517a6.22 6.22 0 0 1-6.212-6.212v-6.427h67.392v6.427a6.22 6.22 0 0 1-6.213 6.212z" stroke-width="0.5" stroke="black" fill="black" stroke-width-old="0"></path><path d="M50 55.443a4.842 4.842 0 0 0-4.84 4.833c0 2.669 2.171 4.84 4.84 4.84s4.84-2.171 4.84-4.84A4.842 4.842 0 0 0 50 55.443zm0 6.673a1.842 1.842 0 0 1-1.84-1.84c0-1.011.825-1.833 1.84-1.833s1.84.822 1.84 1.833c0 1.014-.825 1.84-1.84 1.84z" stroke-width="0.5" stroke="black" fill="black" stroke-width-old="0"></path></g></svg>
